<?xml version="1.0" encoding="UTF-8"?>
<svg id="Capa_1" data-name="Capa 1" xmlns="http://www.w3.org/2000/svg" version="1.1" viewBox="0 0 64 64">
  <defs>
    <style>
      .cls-1 {
        fill: #59c4ee;
      }

      .cls-1, .cls-2 {
        stroke-miterlimit: 10;
        stroke-width: .8px;
      }

      .cls-1, .cls-2, .cls-3 {
        stroke: #1d1d1b;
      }

      .cls-2 {
        fill: #1d1d1b;
      }

      .cls-3 {
        fill: #fff;
        opacity: .9;
        stroke-width: 1.1px;
      }
    </style>
  </defs>
  <g>
    <path class="cls-1" d="M45.3,56.6s-9-1.8-12.1-1.8-14.4,1.8-14.4,1.8c-6.3,0-11.4-5.1-11.4-11.4,0,0,.8-11,.7-14.7s-.7-11.8-.7-11.8c0-6.3,5.2-10.5,11.6-10.5,0,0,5.9.6,8,.8,4.6.4,18.4-1.7,18.4-1.7,6.3,0,11.4,5.1,11.4,11.4,0,0-1.3,6.7-1.5,9-.2,4.4,1.5,17.5,1.5,17.5,0,6.3-5.1,11.4-11.4,11.4Z"/>
    <path class="cls-2" d="M45.3,56.6c-4.4-.7-8.8-1.8-13.3-1.7-4.5.3-8.9,1.1-13.3,1.8-6.9.2-12.5-6.2-11.5-13l.2-2.8c.2-3.7.5-7.4.4-11.1-.2-3.7-.5-7.4-.7-11.1,0-3,1.2-6,3.5-7.9,2.2-1.9,5.3-2.9,8.3-2.9l6.6.6c2.2.3,4.3.2,6.6,0,4.4-.4,8.8-1,13.2-1.6,6.3-.2,12,5.5,11.8,11.8-.8,4.3-1.9,8.7-1.4,13.2.2,4.5.7,8.9,1.2,13.3,0,6.2-5.4,11.7-11.6,11.4h0ZM45.3,56.6c6.1,0,11.5-5.3,11.3-11.4-.5-4.3-1.1-8.9-1.5-13.3-.5-4.5.4-9,1.2-13.3,0-5.6-5-11.1-11-11-4.1.6-8.8,1.2-13.1,1.5-2.2.2-4.5.3-6.7,0l-6.6-.7c-2.7,0-5.7.9-7.9,2.8-2.2,1.7-3.4,4.6-3.4,7.4.3,3.7.5,7.4.7,11.1,0,3.7-.2,7.4-.5,11.1l-.2,2.8c-1,6.6,4.4,12.9,11.1,12.8,2.1-.4,4.4-.7,6.6-1,2.2-.3,4.4-.6,6.6-.7,4.5,0,8.9,1,13.3,1.8h0Z"/>
  </g>
  <path class="cls-3" d="M44.4,44c-.4-.2-1.3-1.5-2.2-2.1-1.5-.8-1.3-.5-2.2-1.2s-1.8-.7-2.3,0-.7,1.2-1.8,1c-5.2-.7-9.4-9-7.6-14.2.4-1.1,2.9-.8,2.9-.8.7-.4,1.2-1.2,1.1-2-.2-2.3,0-4.6.7-6.9.3-1.2-.7-3.2-1.9-3.5l-5-.6c-1.2-.3-2.5,1.1-2.8,2.2-4.6,17.4,4.1,32.3,18.4,36,1.2.3,2.4-.4,2.7-1.5l1-3.6c.2-1.1.2-1.9-.8-2.5h-.2Z"/>
</svg>